<?xml version="1.0" encoding="UTF-8" standalone="no"?>
<svg width="771px" height="237px" viewBox="0 0 771 237" version="1.1" xmlns="http://www.w3.org/2000/svg" xmlns:xlink="http://www.w3.org/1999/xlink" xmlns:sketch="http://www.bohemiancoding.com/sketch/ns">
    <!-- Generator: Sketch 3.2.2 (9983) - http://www.bohemiancoding.com/sketch -->
    <title>Group</title>
    <desc>Created with Sketch.</desc>
    <defs></defs>
    <g id="Page-1" stroke="none" stroke-width="1" fill="none" fill-rule="evenodd" sketch:type="MSPage">
        <g id="Screen-#2-2" sketch:type="MSArtboardGroup" transform="translate(-494.000000, -1427.000000)">
            <g id="Group" sketch:type="MSLayerGroup" transform="translate(494.000000, 1427.000000)">
                <ellipse id="Oval-83" fill="#FA6C0A" sketch:type="MSShapeGroup" cx="699.5" cy="124.5" rx="12.5" ry="33.5"></ellipse>
                <path d="M211.992188,236.105469 C211.992188,236.105469 147.488281,73.7070312 256.835938,73.7070312 C366.183594,73.7070313 380.730474,110.820312 365.144531,166.996094 C349.558589,223.171875 340.265625,235.0625 340.265625,235.0625 L211.992188,236.105469 Z" id="Path-32" fill="#ECECEC" sketch:type="MSShapeGroup"></path>
                <circle id="Oval-24" fill="#FAA70A" sketch:type="MSShapeGroup" cx="637" cy="182" r="10"></circle>
                <circle id="Oval-25" fill="#FAA70A" sketch:type="MSShapeGroup" cx="644" cy="189" r="6"></circle>
                <circle id="Oval-43" fill="#FAA70A" sketch:type="MSShapeGroup" cx="627" cy="190" r="6"></circle>
                <circle id="Oval-34" fill="#FAA70A" sketch:type="MSShapeGroup" cx="658" cy="188" r="6"></circle>
                <circle id="Oval-27" fill="#FAA70A" sketch:type="MSShapeGroup" cx="649" cy="177" r="6"></circle>
                <circle id="Oval-26" fill="#FAA70A" sketch:type="MSShapeGroup" cx="657.5" cy="175.5" r="4.5"></circle>
                <rect id="Rectangle-149" fill="#FAA70A" sketch:type="MSShapeGroup" x="589" y="172" width="74" height="23"></rect>
                <path d="M659,91 L696.995504,91 C698.102557,91 699,91.8964684 699,93.0051769 L699,155.994823 C699,157.102252 698.103081,158 696.995504,158 L679,158 L679,158 L679,184.9976 C679,186.103495 678.113445,187 676.994081,187 L674.005919,187 C672.898081,187 672,186.103721 672,184.9976 L672,158 L654.004496,158 C652.897443,158 652,157.103532 652,155.994823 L652,94.0013886 L652,62.0023996 C652,60.8965048 652.886555,60 654.005919,60 L656.994081,60 C658.101919,60 659,60.8962786 659,62.0023996 L659,91 Z" id="Rectangle-60" fill="#FA6C0A" sketch:type="MSShapeGroup"></path>
                <circle id="Oval-16" fill="#FAA70A" sketch:type="MSShapeGroup" cx="589.5" cy="177.5" r="9.5"></circle>
                <circle id="Oval-18" fill="#FAA70A" sketch:type="MSShapeGroup" cx="572" cy="185" r="5"></circle>
                <circle id="Oval-44" fill="#FAA70A" sketch:type="MSShapeGroup" cx="602" cy="148" r="5"></circle>
                <circle id="Oval-19" fill="#FAA70A" sketch:type="MSShapeGroup" cx="592" cy="190" r="6"></circle>
                <circle id="Oval-20" fill="#FAA70A" sketch:type="MSShapeGroup" cx="622" cy="166" r="15"></circle>
                <circle id="Oval-28" fill="#FAA70A" sketch:type="MSShapeGroup" cx="653" cy="189" r="6"></circle>
                <path d="M741.5,140 C741.5,140 746,132.985281 746,130.5 C746,128.014719 743.985281,126 741.5,126 C739.014719,126 737,128.014719 737,130.5 C737,132.985281 741.5,140 741.5,140 Z" id="Oval-32" fill="#FAA70A" sketch:type="MSShapeGroup" transform="translate(741.500000, 133.000000) rotate(182.000000) translate(-741.500000, -133.000000) "></path>
                <path d="M741.17267,157 C741.17267,157 744.17267,151.989487 744.17267,150.214286 C744.17267,148.439085 742.829524,147 741.17267,147 C739.515816,147 738.17267,148.439085 738.17267,150.214286 C738.17267,151.989487 741.17267,157 741.17267,157 Z" id="Oval-33" fill="#FAA70A" sketch:type="MSShapeGroup" transform="translate(741.172670, 152.000000) rotate(182.000000) translate(-741.172670, -152.000000) "></path>
                <circle id="Oval-29" fill="#ECECEC" sketch:type="MSShapeGroup" cx="640.5" cy="216.5" r="7.5"></circle>
                <circle id="Oval-30" fill="#ECECEC" sketch:type="MSShapeGroup" cx="515.5" cy="216.5" r="7.5"></circle>
                <circle id="Oval-31" fill="#ECECEC" sketch:type="MSShapeGroup" cx="375.5" cy="216.5" r="7.5"></circle>
                <circle id="Oval-57" fill="#FFFFFF" sketch:type="MSShapeGroup" cx="375.5" cy="216.5" r="3.5"></circle>
                <circle id="Oval-58" fill="#FFFFFF" sketch:type="MSShapeGroup" cx="515.5" cy="216.5" r="3.5"></circle>
                <circle id="Oval-59" fill="#FFFFFF" sketch:type="MSShapeGroup" cx="640.5" cy="216.5" r="3.5"></circle>
                <g transform="translate(114.722398, 217.040954) scale(-1, 1) rotate(-325.000000) translate(-114.722398, -217.040954) translate(71.722398, 193.040954)" sketch:type="MSShapeGroup">
                    <circle id="Oval-1" fill="#FAA70A" cx="79.6465389" cy="13.7606894" r="6"></circle>
                    <circle id="Oval-2" fill="#FAA70A" cx="61.6315039" cy="22.5266251" r="8"></circle>
                    <circle id="Oval-3" fill="#FAA70A" cx="34.6315039" cy="27.0266251" r="8"></circle>
                    <circle id="Oval-4" fill="#FAA70A" cx="37.4162232" cy="8.94151497" r="8"></circle>
                    <path d="M0.728572355,30.9329986 C0.306165576,29.3278529 1.30111644,28.0266251 2.96026964,28.0266251 L46.9672048,28.0266251 C48.622144,28.0266251 49.620067,29.3325721 49.1989021,30.9329986 L45.7285724,44.1202516 C45.3061656,45.7253974 43.6214278,47.0266251 41.957236,47.0266251 L7.97023842,47.0266251 C6.30979366,47.0266251 4.62006697,45.7206782 4.19890209,44.1202516 L0.728572355,30.9329986 Z" id="Rectangle-18" fill="#ECECEC"></path>
                    <rect id="Rectangle-19" fill="#ECECEC" x="12.6315039" y="18.0266251" width="23" height="20" rx="3"></rect>
                    <rect id="Rectangle-20" fill="#FFFFFF" x="15.6315039" y="21.0266251" width="17" height="6" rx="2"></rect>
                </g>
                <rect id="Rectangle-21" fill="#ECECEC" sketch:type="MSShapeGroup" x="0" y="235" width="771" height="2" rx="6"></rect>
                <rect id="Rectangle-27" fill="#ECECEC" sketch:type="MSShapeGroup" x="361" y="195" width="301" height="2" rx="6"></rect>
                <rect id="Rectangle-40" fill="#ECECEC" sketch:type="MSShapeGroup" x="635" y="170" width="27" height="2" rx="6"></rect>
                <rect id="Rectangle-28" fill="#ECECEC" sketch:type="MSShapeGroup" x="635" y="70" width="2" height="102" rx="6"></rect>
                <rect id="Rectangle-44" fill="#ECECEC" sketch:type="MSShapeGroup" x="661" y="170" width="2" height="14" rx="6"></rect>
                <rect id="Rectangle-46" fill="#ECECEC" sketch:type="MSShapeGroup" x="661" y="193" width="2" height="4" rx="6"></rect>
                <rect id="Rectangle-50" fill="#ECECEC" sketch:type="MSShapeGroup" x="661" y="196" width="2" height="4" rx="6"></rect>
                <g id="Group-+-Group-3-+-Group-+-Group-4" transform="translate(501.000000, 196.000000)" fill="#ECECEC" sketch:type="MSShapeGroup">
                    <g id="Group-+-Group-3" transform="translate(80.000000, 0.000000)">
                        <g id="Group" transform="translate(40.000000, 0.000000)">
                            <rect id="Rectangle-55" x="30" y="0" width="2" height="4" rx="6"></rect>
                            <rect id="Rectangle-56" x="20" y="0" width="2" height="4" rx="6"></rect>
                            <rect id="Rectangle-57" x="10" y="0" width="2" height="4" rx="6"></rect>
                            <rect id="Rectangle-58" x="0" y="0" width="2" height="4" rx="6"></rect>
                        </g>
                        <g id="Group-3">
                            <rect id="Rectangle-55" x="30" y="0" width="2" height="4" rx="6"></rect>
                            <rect id="Rectangle-56" x="20" y="0" width="2" height="4" rx="6"></rect>
                            <rect id="Rectangle-57" x="10" y="0" width="2" height="4" rx="6"></rect>
                            <rect id="Rectangle-58" x="0" y="0" width="2" height="4" rx="6"></rect>
                        </g>
                    </g>
                    <g id="Group-+-Group-4">
                        <g id="Group" transform="translate(40.000000, 0.000000)">
                            <rect id="Rectangle-55" x="30" y="0" width="2" height="4" rx="6"></rect>
                            <rect id="Rectangle-56" x="20" y="0" width="2" height="4" rx="6"></rect>
                            <rect id="Rectangle-57" x="10" y="0" width="2" height="4" rx="6"></rect>
                            <rect id="Rectangle-58" x="0" y="0" width="2" height="4" rx="6"></rect>
                        </g>
                        <g id="Group-3">
                            <rect id="Rectangle-55" x="30" y="0" width="2" height="4" rx="6"></rect>
                            <rect id="Rectangle-56" x="20" y="0" width="2" height="4" rx="6"></rect>
                            <rect id="Rectangle-57" x="10" y="0" width="2" height="4" rx="6"></rect>
                            <rect id="Rectangle-58" x="0" y="0" width="2" height="4" rx="6"></rect>
                        </g>
                    </g>
                </g>
                <g id="Group-+-Group-3-+-Group-+-Group-5" transform="translate(361.000000, 196.000000)" fill="#ECECEC" sketch:type="MSShapeGroup">
                    <g id="Group-+-Group-3" transform="translate(60.000000, 0.000000)">
                        <g id="Group" transform="translate(40.000000, 0.000000)">
                            <rect id="Rectangle-55" x="30" y="0" width="2" height="4" rx="6"></rect>
                            <rect id="Rectangle-56" x="20" y="0" width="2" height="4" rx="6"></rect>
                            <rect id="Rectangle-57" x="10" y="0" width="2" height="4" rx="6"></rect>
                            <rect id="Rectangle-58" x="0" y="0" width="2" height="4" rx="6"></rect>
                        </g>
                        <g id="Group-3">
                            <rect id="Rectangle-55" x="30" y="0" width="2" height="4" rx="6"></rect>
                            <rect id="Rectangle-56" x="20" y="0" width="2" height="4" rx="6"></rect>
                            <rect id="Rectangle-57" x="10" y="0" width="2" height="4" rx="6"></rect>
                            <rect id="Rectangle-58" x="0" y="0" width="2" height="4" rx="6"></rect>
                        </g>
                    </g>
                    <g id="Group-+-Group-4">
                        <g id="Group" transform="translate(20.000000, 0.000000)">
                            <rect id="Rectangle-55" x="30" y="0" width="2" height="4" rx="6"></rect>
                            <rect id="Rectangle-56" x="20" y="0" width="2" height="4" rx="6"></rect>
                            <rect id="Rectangle-57" x="10" y="0" width="2" height="4" rx="6"></rect>
                            <rect id="Rectangle-58" x="0" y="0" width="2" height="4" rx="6"></rect>
                        </g>
                        <g id="Group-3">
                            <rect id="Rectangle-55" x="10" y="0" width="2" height="4" rx="6"></rect>
                            <rect id="Rectangle-56" x="0" y="0" width="2" height="4" rx="6"></rect>
                        </g>
                    </g>
                </g>
                <rect id="Rectangle-30" fill="#ECECEC" sketch:type="MSShapeGroup" x="635" y="70" width="15" height="2" rx="6"></rect>
                <rect id="Rectangle-31" fill="#ECECEC" sketch:type="MSShapeGroup" x="686" y="70" width="35" height="2" rx="6"></rect>
                <rect id="Rectangle-29" fill="#ECECEC" sketch:type="MSShapeGroup" x="719" y="70" width="2" height="166" rx="6"></rect>
                <rect id="Rectangle-32" fill="#ECECEC" sketch:type="MSShapeGroup" x="707" y="93" width="47" height="19" rx="2"></rect>
                <rect id="Rectangle-49" fill="#ECECEC" sketch:type="MSShapeGroup" x="727" y="187" width="37" height="49" rx="2"></rect>
                <ellipse id="Oval-53" fill="#D8D8D8" sketch:type="MSShapeGroup" cx="745.5" cy="188" rx="18.5" ry="4"></ellipse>
                <ellipse id="Oval-54" fill="#FAA70A" sketch:type="MSShapeGroup" cx="745.5" cy="187.5" rx="15.5" ry="2.5"></ellipse>
                <rect id="Rectangle-51" fill="#FFFFFF" sketch:type="MSShapeGroup" x="730" y="204" width="7" height="2" rx="2"></rect>
                <rect id="Rectangle-52" fill="#FFFFFF" sketch:type="MSShapeGroup" x="730" y="210" width="7" height="2" rx="2"></rect>
                <rect id="Rectangle-53" fill="#FFFFFF" sketch:type="MSShapeGroup" x="730" y="216" width="7" height="2" rx="2"></rect>
                <rect id="Rectangle-54" fill="#FFFFFF" sketch:type="MSShapeGroup" x="730" y="223" width="7" height="2" rx="2"></rect>
                <rect id="Rectangle-37" fill="#ECECEC" sketch:type="MSShapeGroup" x="647" y="49" width="47" height="23" rx="2"></rect>
                <rect id="Rectangle-38" fill="#FA6C0A" sketch:type="MSShapeGroup" x="652" y="41" width="7" height="33" rx="2"></rect>
                <rect id="Rectangle-39" fill="#FA6C0A" sketch:type="MSShapeGroup" x="650" y="43" width="11" height="3" rx="2"></rect>
                <rect id="Rectangle-33" fill="#ECECEC" sketch:type="MSShapeGroup" x="738" y="107" width="7" height="19" rx="2"></rect>
                <rect id="Rectangle-34" fill="#ECECEC" sketch:type="MSShapeGroup" x="688" y="100" width="27" height="7" rx="2"></rect>
                <rect id="Rectangle-36" fill="#ECECEC" sketch:type="MSShapeGroup" x="661" y="185" width="34" height="7" rx="2"></rect>
                <rect id="Rectangle-35" fill="#ECECEC" sketch:type="MSShapeGroup" x="688" y="100" width="7" height="89" rx="2"></rect>
                <rect id="Rectangle-23" fill="#ECECEC" sketch:type="MSShapeGroup" x="84" y="67" width="2" height="169" rx="5"></rect>
                <rect id="Rectangle-25" fill="#ECECEC" sketch:type="MSShapeGroup" transform="translate(100.000000, 73.500000) rotate(30.000000) translate(-100.000000, -73.500000) " x="99" y="44" width="2" height="59" rx="5"></rect>
                <rect id="Rectangle-24" fill="#ECECEC" sketch:type="MSShapeGroup" transform="translate(69.000000, 68.500000) rotate(-52.000000) translate(-69.000000, -68.500000) " x="68" y="49" width="2" height="39" rx="5"></rect>
                <rect id="Rectangle-26" fill="#ECECEC" sketch:type="MSShapeGroup" transform="translate(116.000000, 58.500000) rotate(-102.000000) translate(-116.000000, -58.500000) " x="115" y="49" width="2" height="19" rx="5"></rect>
                <path d="M751.5,199 C751.5,199 754.5,193.989487 754.5,192.214286 C754.5,190.439085 753.156854,189 751.5,189 C749.843146,189 748.5,190.439085 748.5,192.214286 C748.5,193.989487 751.5,199 751.5,199 Z" id="Oval-55" fill="#FAA70A" sketch:type="MSShapeGroup" transform="translate(751.500000, 194.000000) rotate(182.000000) translate(-751.500000, -194.000000) "></path>
                <path d="M757.5,207.5 C757.5,207.5 759.5,203.992641 759.5,202.75 C759.5,201.507359 758.604569,200.5 757.5,200.5 C756.395431,200.5 755.5,201.507359 755.5,202.75 C755.5,203.992641 757.5,207.5 757.5,207.5 Z" id="Oval-56" fill="#FAA70A" sketch:type="MSShapeGroup" transform="translate(757.500000, 204.000000) rotate(182.000000) translate(-757.500000, -204.000000) "></path>
                <path id="Path-23" stroke="#979797" sketch:type="MSShapeGroup" d=""></path>
                <circle id="Oval-21" fill="#FAA70A" sketch:type="MSShapeGroup" cx="605" cy="183" r="10"></circle>
                <circle id="Oval-39" fill="#FAA70A" sketch:type="MSShapeGroup" cx="603" cy="170" r="10"></circle>
                <circle id="Oval-22" fill="#FAA70A" sketch:type="MSShapeGroup" cx="600" cy="185" r="10"></circle>
                <circle id="Oval-41" fill="#FAA70A" sketch:type="MSShapeGroup" cx="600" cy="185" r="10"></circle>
                <circle id="Oval-42" fill="#FAA70A" sketch:type="MSShapeGroup" cx="610" cy="184" r="10"></circle>
                <circle id="Oval-23" fill="#FAA70A" sketch:type="MSShapeGroup" cx="633" cy="190" r="5"></circle>
                <circle id="Oval-35" fill="#FAA70A" sketch:type="MSShapeGroup" cx="647.5" cy="181.5" r="4.5"></circle>
                <circle id="Oval-36" fill="#FAA70A" sketch:type="MSShapeGroup" cx="656" cy="181" r="5"></circle>
                <ellipse id="Oval-60" fill="#FAA70A" sketch:type="MSShapeGroup" cx="741.5" cy="125" rx="2.5" ry="1"></ellipse>
                <circle id="Oval-37" fill="#FA6C0A" sketch:type="MSShapeGroup" cx="655" cy="23" r="3"></circle>
                <circle id="Oval-38" fill="#FA6C0A" sketch:type="MSShapeGroup" cx="655" cy="8" r="8"></circle>
                <path d="M293.921875,131.296875 C293.921875,131.296875 280.070313,149.96875 304.296875,170.109375" id="Path-32" stroke="#D8D8D8" sketch:type="MSShapeGroup"></path>
                <path d="M741.5,190 C741.5,190 746,182.985281 746,180.5 C746,178.014719 743.985281,176 741.5,176 C739.014719,176 737,178.014719 737,180.5 C737,182.985281 741.5,190 741.5,190 Z" id="Oval-40" fill="#FAA70A" sketch:type="MSShapeGroup" transform="translate(741.500000, 183.000000) rotate(182.000000) translate(-741.500000, -183.000000) "></path>
                <ellipse id="Oval-82" fill="#FA6C0A" sketch:type="MSShapeGroup" cx="654.5" cy="124.5" rx="11.5" ry="33.5"></ellipse>
                <g transform="translate(658.000000, 102.000000)" fill="#FAA70A" sketch:type="MSShapeGroup">
                    <rect id="Rectangle-42" x="32" y="0" width="3" height="88" rx="2"></rect>
                    <rect id="Rectangle-45" x="82" y="0" width="3" height="18" rx="2"></rect>
                    <rect id="Rectangle-41" x="0" y="85" width="34" height="3" rx="2"></rect>
                    <rect id="Rectangle-43" x="33" y="0" width="51" height="3" rx="2"></rect>
                </g>
            </g>
        </g>
    </g>
</svg>