<?xml version="1.0" encoding="UTF-8" standalone="no"?>
<svg width="227px" height="48px" viewBox="0 0 227 48" version="1.1" xmlns="http://www.w3.org/2000/svg" xmlns:xlink="http://www.w3.org/1999/xlink" xmlns:sketch="http://www.bohemiancoding.com/sketch/ns">
    <!-- Generator: Sketch 3.2.2 (9983) - http://www.bohemiancoding.com/sketch -->
    <title>Q + P + transactional queue </title>
    <desc>Created with Sketch.</desc>
    <defs></defs>
    <g id="Page-1" stroke="none" stroke-width="1" fill="none" fill-rule="evenodd" sketch:type="MSPage">
        <g id="Screen-#2-2" sketch:type="MSArtboardGroup" transform="translate(-141.000000, -48.000000)" fill="#000000">
            <g id="Q-+-P-+-transactional-queue-" sketch:type="MSLayerGroup" transform="translate(141.000000, 44.000000)">
                <path d="M47.37,46.45 C52.47,49.33 61.47,51.79 67.53,51.79 C70.83,51.79 71.97,50.23 71.97,47.83 L71.97,45.19 C68.01,45.19 62.01,44.65 58.89,43.63 C64.23,42.55 70.53,35.35 70.53,24.85 C70.53,11.71 61.53,4.21 52.05,4.21 C38.31,4.21 32.07,13.93 32.07,26.05 C32.07,38.35 40.47,45.07 47.37,46.45 L47.37,46.45 Z M62.07,25.87 C62.07,33.61 58.29,39.67 52.05,39.67 C44.79,39.67 40.53,34.87 40.53,24.85 C40.53,16.87 44.49,11.47 51.03,11.47 C58.59,11.47 62.07,16.45 62.07,25.87 L62.07,25.87 Z" id="Q" sketch:type="MSShapeGroup"></path>
                <path d="M29.43,17.41 C29.43,9.19 23.73,4.63 15.75,4.63 L11.13,4.63 C8.19,4.63 2.73,5.71 0.45,6.55 L0.45,40.15 C0.45,44.53 3.15,46.03 5.43,46.03 L8.67,46.03 L8.67,30.07 C10.35,30.97 12.69,31.45 15.57,31.45 C23.43,31.45 29.43,26.11 29.43,17.41 L29.43,17.41 Z M20.97,18.13 C20.97,22.09 18.69,24.49 14.49,24.49 C12.39,24.49 10.11,24.19 8.67,23.77 L8.67,12.13 C9.63,11.95 11.07,11.59 12.09,11.59 L14.73,11.59 C19.05,11.59 20.97,13.45 20.97,18.13 L20.97,18.13 Z" id="P" sketch:type="MSShapeGroup"></path>
                <text id="transactional-" opacity="0.5" sketch:type="MSTextLayer" font-family="Georgia" font-size="22" font-weight="normal" line-spacing="23">
                    <tspan x="95.55" y="20.79">transactional </tspan>
                    <tspan x="95.55" y="43.79">queue system</tspan>
                </text>
            </g>
        </g>
    </g>
</svg>