<?xml version="1.0" encoding="UTF-8" standalone="no"?>
<svg width="16px" height="16px" viewBox="0 0 16 16" version="1.1" xmlns="http://www.w3.org/2000/svg" xmlns:xlink="http://www.w3.org/1999/xlink" xmlns:sketch="http://www.bohemiancoding.com/sketch/ns">
    <!-- Generator: Sketch 3.2.2 (9983) - http://www.bohemiancoding.com/sketch -->
    <title>Shape</title>
    <desc>Created with Sketch.</desc>
    <defs></defs>
    <g id="Page-1" stroke="none" stroke-width="1" fill="none" fill-rule="evenodd" sketch:type="MSPage">
        <g id="Screen-#2" sketch:type="MSArtboardGroup" transform="translate(-1266.000000, -62.000000)" fill="#000000">
            <path d="M1272.5,61.9865013 C1268.922,61.9865013 1266,64.9085013 1266,68.4865013 C1266,72.0645013 1268.922,74.9865013 1272.5,74.9865013 C1273.747,74.9865013 1274.915,74.6315013 1275.906,74.0175013 C1275.91618,74.0279851 1275.92652,74.0383195 1275.937,74.0485013 L1279.437,77.5485013 C1279.81355,77.9427992 1280.37411,78.102257 1280.90181,77.9651887 C1281.42952,77.8281204 1281.84162,77.4160232 1281.97869,76.8883159 C1282.11576,76.3606085 1281.9563,75.800054 1281.562,75.4235013 L1278.062,71.9235013 C1278.05182,71.9130175 1278.04148,71.9026831 1278.031,71.8925013 C1278.645,70.9005013 1279,69.7335013 1279,68.4865013 C1279,64.9085013 1276.078,61.9865013 1272.5,61.9865013 L1272.5,61.9865013 Z M1272.5,63.9865013 C1274.997,63.9865013 1277,65.9895013 1277,68.4865013 C1277,70.9835013 1274.997,72.9865013 1272.5,72.9865013 C1270.003,72.9865013 1268,70.9835013 1268,68.4865013 C1268,65.9895013 1270.003,63.9865013 1272.5,63.9865013 L1272.5,63.9865013 Z" id="Shape" sketch:type="MSShapeGroup"></path>
        </g>
    </g>
</svg>