<?xml version="1.0" encoding="UTF-8" standalone="no"?>
<svg width="17px" height="16px" viewBox="0 0 17 16" version="1.1" xmlns="http://www.w3.org/2000/svg" xmlns:xlink="http://www.w3.org/1999/xlink" xmlns:sketch="http://www.bohemiancoding.com/sketch/ns">
    <!-- Generator: Sketch 3.2.2 (9983) - http://www.bohemiancoding.com/sketch -->
    <title>Shape 3</title>
    <desc>Created with Sketch.</desc>
    <defs></defs>
    <g id="Page-1" stroke="none" stroke-width="1" fill="none" fill-rule="evenodd" sketch:type="MSPage">
        <g id="Screen-#2-2" sketch:type="MSArtboardGroup" transform="translate(-332.000000, -748.000000)" fill="#8B8B8B">
            <path d="M347.219413,753.986654 L342.080074,753.986654 L342.080074,748.84761 C342.080074,748.38149 341.699029,748 341.232921,748 L338.901947,748 C338.435405,748 338.053926,748.38149 338.053926,748.84761 L338.053926,753.987088 L332.914587,753.987088 C332.448913,753.987088 332.067,754.368578 332.067,754.834699 L332.067,757.166169 C332.067,757.631856 332.448913,758.013346 332.914587,758.013346 L338.053926,758.013346 L338.053926,763.15239 C338.053926,763.618944 338.435405,764 338.901947,764 L341.232921,764 C341.699029,764 342.080074,763.618944 342.080074,763.15239 L342.080074,758.013346 L347.219413,758.013346 C347.685521,758.013346 348.067,757.631856 348.067,757.166169 L348.067,754.834699 C348.067,754.368144 347.685521,753.986654 347.219413,753.986654 L347.219413,753.986654 Z" id="Shape-3" sketch:type="MSShapeGroup"></path>
        </g>
    </g>
</svg>